<mxfile host="app.diagrams.net" modified="2023-08-17T20:53:12.327Z" agent="Mozilla/5.0 (Windows NT 10.0; Win64; x64) AppleWebKit/537.36 (KHTML, like Gecko) Chrome/115.0.0.0 Safari/537.36 Edg/115.0.1901.203" etag="UrYlSBQ3Scs67MYlXUuN" version="21.6.8" type="device">
  <diagram name="HGTP Network Topology" id="6sS-9sXs4pdYWUNNnyWB">
    <mxGraphModel dx="2231" dy="2010" grid="1" gridSize="10" guides="1" tooltips="1" connect="1" arrows="1" fold="1" page="1" pageScale="1" pageWidth="1169" pageHeight="827" math="0" shadow="0">
      <root>
        <mxCell id="wUNKqmBtZkAia705sFF1-0" />
        <mxCell id="wUNKqmBtZkAia705sFF1-1" parent="wUNKqmBtZkAia705sFF1-0" />
        <mxCell id="mhLgrYeDazOigMpENPwk-1" value="" style="verticalLabelPosition=bottom;html=1;verticalAlign=top;strokeWidth=2;shape=mxgraph.lean_mapping.physical_pull;pointerEvents=1;strokeColor=#115193;dashed=1;" parent="wUNKqmBtZkAia705sFF1-1" vertex="1">
          <mxGeometry x="830" y="-640" width="340" height="260" as="geometry" />
        </mxCell>
        <mxCell id="wUNKqmBtZkAia705sFF1-2" style="edgeStyle=orthogonalEdgeStyle;orthogonalLoop=1;jettySize=auto;html=1;curved=1;strokeColor=#8CC64F;" parent="wUNKqmBtZkAia705sFF1-1" source="wUNKqmBtZkAia705sFF1-3" target="wUNKqmBtZkAia705sFF1-99" edge="1">
          <mxGeometry relative="1" as="geometry" />
        </mxCell>
        <mxCell id="wUNKqmBtZkAia705sFF1-3" value="" style="whiteSpace=wrap;html=1;dashed=1;dashPattern=12 12;" parent="wUNKqmBtZkAia705sFF1-1" vertex="1">
          <mxGeometry x="1442.25" y="-554" width="277.75" height="265.75" as="geometry" />
        </mxCell>
        <mxCell id="wUNKqmBtZkAia705sFF1-4" value="Metagraph D" style="text;html=1;align=center;verticalAlign=middle;resizable=0;points=[];autosize=1;strokeColor=none;fillColor=none;fontSize=15;" parent="wUNKqmBtZkAia705sFF1-1" vertex="1">
          <mxGeometry x="1449.75" y="-550" width="110" height="30" as="geometry" />
        </mxCell>
        <mxCell id="wUNKqmBtZkAia705sFF1-5" style="edgeStyle=orthogonalEdgeStyle;orthogonalLoop=1;jettySize=auto;html=1;strokeColor=#8CC64F;curved=1;" parent="wUNKqmBtZkAia705sFF1-1" source="wUNKqmBtZkAia705sFF1-6" target="wUNKqmBtZkAia705sFF1-118" edge="1">
          <mxGeometry relative="1" as="geometry" />
        </mxCell>
        <mxCell id="wUNKqmBtZkAia705sFF1-6" value="" style="whiteSpace=wrap;html=1;dashed=1;dashPattern=12 12;" parent="wUNKqmBtZkAia705sFF1-1" vertex="1">
          <mxGeometry x="1253.5" y="-201.5" width="297.75" height="249.5" as="geometry" />
        </mxCell>
        <mxCell id="wUNKqmBtZkAia705sFF1-7" value="Metagraph C" style="text;html=1;align=center;verticalAlign=middle;resizable=0;points=[];autosize=1;strokeColor=none;fillColor=none;fontSize=15;" parent="wUNKqmBtZkAia705sFF1-1" vertex="1">
          <mxGeometry x="1266.25" y="8" width="110" height="30" as="geometry" />
        </mxCell>
        <mxCell id="wUNKqmBtZkAia705sFF1-8" style="edgeStyle=orthogonalEdgeStyle;orthogonalLoop=1;jettySize=auto;html=1;exitX=0.5;exitY=0;exitDx=0;exitDy=0;curved=1;strokeColor=#8CC64F;" parent="wUNKqmBtZkAia705sFF1-1" source="wUNKqmBtZkAia705sFF1-9" target="wUNKqmBtZkAia705sFF1-96" edge="1">
          <mxGeometry relative="1" as="geometry" />
        </mxCell>
        <mxCell id="wUNKqmBtZkAia705sFF1-9" value="" style="whiteSpace=wrap;html=1;dashed=1;dashPattern=12 12;" parent="wUNKqmBtZkAia705sFF1-1" vertex="1">
          <mxGeometry x="588.87" y="-210" width="297.75" height="347" as="geometry" />
        </mxCell>
        <mxCell id="wUNKqmBtZkAia705sFF1-11" value="" style="pointerEvents=1;shadow=0;dashed=0;html=1;strokeColor=none;fillColor=#115193;labelPosition=center;verticalLabelPosition=bottom;verticalAlign=top;align=center;outlineConnect=0;shape=mxgraph.veeam.2d.proxy;" parent="wUNKqmBtZkAia705sFF1-1" vertex="1">
          <mxGeometry x="920.75" y="-369" width="30" height="30" as="geometry" />
        </mxCell>
        <mxCell id="wUNKqmBtZkAia705sFF1-12" style="edgeStyle=orthogonalEdgeStyle;orthogonalLoop=1;jettySize=auto;html=1;curved=1;strokeColor=#115193;" parent="wUNKqmBtZkAia705sFF1-1" source="wUNKqmBtZkAia705sFF1-14" edge="1">
          <mxGeometry relative="1" as="geometry">
            <mxPoint x="990" y="-450" as="targetPoint" />
            <Array as="points">
              <mxPoint x="998" y="-398" />
              <mxPoint x="991" y="-398" />
              <mxPoint x="991" y="-450" />
            </Array>
          </mxGeometry>
        </mxCell>
        <mxCell id="wUNKqmBtZkAia705sFF1-14" value="" style="pointerEvents=1;shadow=0;dashed=0;html=1;strokeColor=none;fillColor=#115193;labelPosition=center;verticalLabelPosition=bottom;verticalAlign=top;align=center;outlineConnect=0;shape=mxgraph.veeam.2d.proxy;" parent="wUNKqmBtZkAia705sFF1-1" vertex="1">
          <mxGeometry x="982.5" y="-348" width="30" height="30" as="geometry" />
        </mxCell>
        <mxCell id="wUNKqmBtZkAia705sFF1-16" value="" style="pointerEvents=1;shadow=0;dashed=0;html=1;strokeColor=none;fillColor=#115193;labelPosition=center;verticalLabelPosition=bottom;verticalAlign=top;align=center;outlineConnect=0;shape=mxgraph.veeam.2d.proxy;" parent="wUNKqmBtZkAia705sFF1-1" vertex="1">
          <mxGeometry x="1043.1599999999999" y="-365" width="30" height="30" as="geometry" />
        </mxCell>
        <mxCell id="wUNKqmBtZkAia705sFF1-18" value="" style="pointerEvents=1;shadow=0;dashed=0;html=1;strokeColor=none;fillColor=#115193;labelPosition=center;verticalLabelPosition=bottom;verticalAlign=top;align=center;outlineConnect=0;shape=mxgraph.veeam.2d.proxy;" parent="wUNKqmBtZkAia705sFF1-1" vertex="1">
          <mxGeometry x="1085" y="-399" width="30" height="30" as="geometry" />
        </mxCell>
        <mxCell id="wUNKqmBtZkAia705sFF1-20" value="" style="pointerEvents=1;shadow=0;dashed=0;html=1;strokeColor=none;fillColor=#115193;labelPosition=center;verticalLabelPosition=bottom;verticalAlign=top;align=center;outlineConnect=0;shape=mxgraph.veeam.2d.proxy;" parent="wUNKqmBtZkAia705sFF1-1" vertex="1">
          <mxGeometry x="1146" y="-444" width="30" height="30" as="geometry" />
        </mxCell>
        <mxCell id="wUNKqmBtZkAia705sFF1-22" value="" style="pointerEvents=1;shadow=0;dashed=0;html=1;strokeColor=none;fillColor=#115193;labelPosition=center;verticalLabelPosition=bottom;verticalAlign=top;align=center;outlineConnect=0;shape=mxgraph.veeam.2d.proxy;" parent="wUNKqmBtZkAia705sFF1-1" vertex="1">
          <mxGeometry x="1180" y="-499" width="30" height="30" as="geometry" />
        </mxCell>
        <mxCell id="wUNKqmBtZkAia705sFF1-24" value="" style="pointerEvents=1;shadow=0;dashed=0;html=1;strokeColor=none;fillColor=#115193;labelPosition=center;verticalLabelPosition=bottom;verticalAlign=top;align=center;outlineConnect=0;shape=mxgraph.veeam.2d.proxy;" parent="wUNKqmBtZkAia705sFF1-1" vertex="1">
          <mxGeometry x="853.5" y="-399" width="30" height="30" as="geometry" />
        </mxCell>
        <mxCell id="wUNKqmBtZkAia705sFF1-26" value="" style="pointerEvents=1;shadow=0;dashed=0;html=1;strokeColor=none;fillColor=#115193;labelPosition=center;verticalLabelPosition=bottom;verticalAlign=top;align=center;outlineConnect=0;shape=mxgraph.veeam.2d.proxy;" parent="wUNKqmBtZkAia705sFF1-1" vertex="1">
          <mxGeometry x="815" y="-430" width="30" height="30" as="geometry" />
        </mxCell>
        <mxCell id="wUNKqmBtZkAia705sFF1-27" style="edgeStyle=orthogonalEdgeStyle;orthogonalLoop=1;jettySize=auto;html=1;strokeColor=#8CC64F;curved=1;" parent="wUNKqmBtZkAia705sFF1-1" source="wUNKqmBtZkAia705sFF1-28" target="wUNKqmBtZkAia705sFF1-83" edge="1">
          <mxGeometry relative="1" as="geometry" />
        </mxCell>
        <mxCell id="wUNKqmBtZkAia705sFF1-28" value="" style="whiteSpace=wrap;html=1;dashed=1;dashPattern=12 12;" parent="wUNKqmBtZkAia705sFF1-1" vertex="1">
          <mxGeometry x="275" y="-640" width="310" height="344" as="geometry" />
        </mxCell>
        <mxCell id="wUNKqmBtZkAia705sFF1-29" value="" style="outlineConnect=0;dashed=0;verticalLabelPosition=bottom;verticalAlign=top;align=center;html=1;shape=mxgraph.aws3.android;fillColor=#115193;gradientColor=none;" parent="wUNKqmBtZkAia705sFF1-1" vertex="1">
          <mxGeometry x="1150" y="-436" width="73.5" height="84" as="geometry" />
        </mxCell>
        <mxCell id="wUNKqmBtZkAia705sFF1-30" style="edgeStyle=orthogonalEdgeStyle;orthogonalLoop=1;jettySize=auto;html=1;entryX=0.5;entryY=0;entryDx=0;entryDy=0;entryPerimeter=0;curved=1;strokeColor=#8CC64F;" parent="wUNKqmBtZkAia705sFF1-1" source="wUNKqmBtZkAia705sFF1-31" target="wUNKqmBtZkAia705sFF1-35" edge="1">
          <mxGeometry relative="1" as="geometry">
            <Array as="points">
              <mxPoint x="517" y="-570" />
            </Array>
          </mxGeometry>
        </mxCell>
        <mxCell id="wUNKqmBtZkAia705sFF1-31" value="" style="outlineConnect=0;dashed=0;verticalLabelPosition=bottom;verticalAlign=top;align=center;html=1;shape=mxgraph.aws3.android;fillColor=#8CC64F;gradientColor=none;" parent="wUNKqmBtZkAia705sFF1-1" vertex="1">
          <mxGeometry x="390" y="-603" width="73.5" height="84" as="geometry" />
        </mxCell>
        <mxCell id="wUNKqmBtZkAia705sFF1-32" value="" style="outlineConnect=0;dashed=0;verticalLabelPosition=bottom;verticalAlign=top;align=center;html=1;shape=mxgraph.aws3.android;fillColor=#115193;gradientColor=none;" parent="wUNKqmBtZkAia705sFF1-1" vertex="1">
          <mxGeometry x="1033.9099999999999" y="-736" width="73.5" height="84" as="geometry" />
        </mxCell>
        <mxCell id="wUNKqmBtZkAia705sFF1-33" value="" style="outlineConnect=0;dashed=0;verticalLabelPosition=bottom;verticalAlign=top;align=center;html=1;shape=mxgraph.aws3.android;fillColor=#115193;gradientColor=none;" parent="wUNKqmBtZkAia705sFF1-1" vertex="1">
          <mxGeometry x="950.75" y="-750" width="73.5" height="84" as="geometry" />
        </mxCell>
        <mxCell id="wUNKqmBtZkAia705sFF1-34" value="" style="outlineConnect=0;dashed=0;verticalLabelPosition=bottom;verticalAlign=top;align=center;html=1;shape=mxgraph.aws3.android;fillColor=#115193;gradientColor=none;" parent="wUNKqmBtZkAia705sFF1-1" vertex="1">
          <mxGeometry x="870.75" y="-736" width="73.5" height="84" as="geometry" />
        </mxCell>
        <mxCell id="wUNKqmBtZkAia705sFF1-35" value="" style="outlineConnect=0;dashed=0;verticalLabelPosition=bottom;verticalAlign=top;align=center;html=1;shape=mxgraph.aws3.android;fillColor=#8CC64F;gradientColor=none;" parent="wUNKqmBtZkAia705sFF1-1" vertex="1">
          <mxGeometry x="480" y="-549" width="73.5" height="84" as="geometry" />
        </mxCell>
        <mxCell id="wUNKqmBtZkAia705sFF1-36" style="edgeStyle=orthogonalEdgeStyle;orthogonalLoop=1;jettySize=auto;html=1;entryX=1;entryY=0.75;entryDx=0;entryDy=0;entryPerimeter=0;curved=1;strokeColor=#8CC64F;" parent="wUNKqmBtZkAia705sFF1-1" source="wUNKqmBtZkAia705sFF1-37" target="wUNKqmBtZkAia705sFF1-39" edge="1">
          <mxGeometry relative="1" as="geometry">
            <Array as="points">
              <mxPoint x="517" y="-349" />
              <mxPoint x="484" y="-349" />
              <mxPoint x="484" y="-340" />
            </Array>
          </mxGeometry>
        </mxCell>
        <mxCell id="wUNKqmBtZkAia705sFF1-37" value="" style="outlineConnect=0;dashed=0;verticalLabelPosition=bottom;verticalAlign=top;align=center;html=1;shape=mxgraph.aws3.android;fillColor=#8CC64F;gradientColor=none;" parent="wUNKqmBtZkAia705sFF1-1" vertex="1">
          <mxGeometry x="480" y="-453" width="73.5" height="84" as="geometry" />
        </mxCell>
        <mxCell id="wUNKqmBtZkAia705sFF1-38" style="edgeStyle=orthogonalEdgeStyle;orthogonalLoop=1;jettySize=auto;html=1;entryX=1;entryY=0.75;entryDx=0;entryDy=0;entryPerimeter=0;curved=1;strokeColor=#8CC64F;" parent="wUNKqmBtZkAia705sFF1-1" source="wUNKqmBtZkAia705sFF1-39" target="wUNKqmBtZkAia705sFF1-43" edge="1">
          <mxGeometry relative="1" as="geometry">
            <Array as="points">
              <mxPoint x="427" y="-443" />
              <mxPoint x="394" y="-443" />
              <mxPoint x="394" y="-504" />
            </Array>
          </mxGeometry>
        </mxCell>
        <mxCell id="wUNKqmBtZkAia705sFF1-39" value="" style="outlineConnect=0;dashed=0;verticalLabelPosition=bottom;verticalAlign=top;align=center;html=1;shape=mxgraph.aws3.android;fillColor=#8CC64F;gradientColor=none;" parent="wUNKqmBtZkAia705sFF1-1" vertex="1">
          <mxGeometry x="390" y="-403" width="73.5" height="84" as="geometry" />
        </mxCell>
        <mxCell id="wUNKqmBtZkAia705sFF1-40" style="edgeStyle=orthogonalEdgeStyle;orthogonalLoop=1;jettySize=auto;html=1;strokeColor=#8CC64F;curved=1;" parent="wUNKqmBtZkAia705sFF1-1" source="wUNKqmBtZkAia705sFF1-41" target="wUNKqmBtZkAia705sFF1-37" edge="1">
          <mxGeometry relative="1" as="geometry" />
        </mxCell>
        <mxCell id="wUNKqmBtZkAia705sFF1-41" value="" style="outlineConnect=0;dashed=0;verticalLabelPosition=bottom;verticalAlign=top;align=center;html=1;shape=mxgraph.aws3.android;fillColor=#8CC64F;gradientColor=none;" parent="wUNKqmBtZkAia705sFF1-1" vertex="1">
          <mxGeometry x="300" y="-465" width="73.5" height="84" as="geometry" />
        </mxCell>
        <mxCell id="wUNKqmBtZkAia705sFF1-42" style="edgeStyle=orthogonalEdgeStyle;orthogonalLoop=1;jettySize=auto;html=1;entryX=0;entryY=0.25;entryDx=0;entryDy=0;entryPerimeter=0;curved=1;strokeColor=#8CC64F;" parent="wUNKqmBtZkAia705sFF1-1" source="wUNKqmBtZkAia705sFF1-43" target="wUNKqmBtZkAia705sFF1-31" edge="1">
          <mxGeometry relative="1" as="geometry">
            <Array as="points">
              <mxPoint x="337" y="-570" />
              <mxPoint x="370" y="-570" />
              <mxPoint x="370" y="-582" />
            </Array>
          </mxGeometry>
        </mxCell>
        <mxCell id="wUNKqmBtZkAia705sFF1-43" value="" style="outlineConnect=0;dashed=0;verticalLabelPosition=bottom;verticalAlign=top;align=center;html=1;shape=mxgraph.aws3.android;fillColor=#8CC64F;gradientColor=none;" parent="wUNKqmBtZkAia705sFF1-1" vertex="1">
          <mxGeometry x="300" y="-567" width="73.5" height="84" as="geometry" />
        </mxCell>
        <mxCell id="wUNKqmBtZkAia705sFF1-44" value="" style="outlineConnect=0;dashed=0;verticalLabelPosition=bottom;verticalAlign=top;align=center;html=1;shape=mxgraph.aws3.android;fillColor=#115193;gradientColor=none;" parent="wUNKqmBtZkAia705sFF1-1" vertex="1">
          <mxGeometry x="760" y="-432" width="73.5" height="84" as="geometry" />
        </mxCell>
        <mxCell id="wUNKqmBtZkAia705sFF1-45" value="" style="outlineConnect=0;dashed=0;verticalLabelPosition=bottom;verticalAlign=top;align=center;html=1;shape=mxgraph.aws3.android;fillColor=#115193;gradientColor=none;" parent="wUNKqmBtZkAia705sFF1-1" vertex="1">
          <mxGeometry x="1104.25" y="-692" width="73.5" height="84" as="geometry" />
        </mxCell>
        <mxCell id="wUNKqmBtZkAia705sFF1-46" value="" style="outlineConnect=0;dashed=0;verticalLabelPosition=bottom;verticalAlign=top;align=center;html=1;shape=mxgraph.aws3.android;fillColor=#8CC64F;gradientColor=#115193;" parent="wUNKqmBtZkAia705sFF1-1" vertex="1">
          <mxGeometry x="1170" y="-642" width="73.5" height="84" as="geometry" />
        </mxCell>
        <mxCell id="wUNKqmBtZkAia705sFF1-47" value="" style="outlineConnect=0;dashed=0;verticalLabelPosition=bottom;verticalAlign=top;align=center;html=1;shape=mxgraph.aws3.android;fillColor=#8CC64F;gradientColor=#115193;" parent="wUNKqmBtZkAia705sFF1-1" vertex="1">
          <mxGeometry x="1030.75" y="-352" width="73.5" height="84" as="geometry" />
        </mxCell>
        <mxCell id="wUNKqmBtZkAia705sFF1-48" value="" style="outlineConnect=0;dashed=0;verticalLabelPosition=bottom;verticalAlign=top;align=center;html=1;shape=mxgraph.aws3.android;fillColor=#8CC64F;gradientColor=#115193;" parent="wUNKqmBtZkAia705sFF1-1" vertex="1">
          <mxGeometry x="883.5" y="-359" width="73.5" height="84" as="geometry" />
        </mxCell>
        <mxCell id="wUNKqmBtZkAia705sFF1-49" value="" style="outlineConnect=0;dashed=0;verticalLabelPosition=bottom;verticalAlign=top;align=center;html=1;shape=mxgraph.aws3.android;fillColor=#8CC64F;gradientColor=none;" parent="wUNKqmBtZkAia705sFF1-1" vertex="1">
          <mxGeometry x="1278.75" y="-135.5" width="73.5" height="84" as="geometry" />
        </mxCell>
        <mxCell id="wUNKqmBtZkAia705sFF1-50" value="" style="outlineConnect=0;dashed=0;verticalLabelPosition=bottom;verticalAlign=top;align=center;html=1;shape=mxgraph.aws3.android;fillColor=#8CC64F;gradientColor=none;" parent="wUNKqmBtZkAia705sFF1-1" vertex="1">
          <mxGeometry x="1368.75" y="-181.5" width="73.5" height="84" as="geometry" />
        </mxCell>
        <mxCell id="wUNKqmBtZkAia705sFF1-51" value="" style="outlineConnect=0;dashed=0;verticalLabelPosition=bottom;verticalAlign=top;align=center;html=1;shape=mxgraph.aws3.android;fillColor=#8CC64F;gradientColor=none;" parent="wUNKqmBtZkAia705sFF1-1" vertex="1">
          <mxGeometry x="1368.75" y="-85.5" width="73.5" height="84" as="geometry" />
        </mxCell>
        <mxCell id="wUNKqmBtZkAia705sFF1-52" value="" style="outlineConnect=0;dashed=0;verticalLabelPosition=bottom;verticalAlign=top;align=center;html=1;shape=mxgraph.aws3.android;fillColor=#8CC64F;gradientColor=none;" parent="wUNKqmBtZkAia705sFF1-1" vertex="1">
          <mxGeometry x="1464.37" y="-464" width="73.5" height="84" as="geometry" />
        </mxCell>
        <mxCell id="wUNKqmBtZkAia705sFF1-53" value="" style="outlineConnect=0;dashed=0;verticalLabelPosition=bottom;verticalAlign=top;align=center;html=1;shape=mxgraph.aws3.android;fillColor=#8CC64F;gradientColor=none;" parent="wUNKqmBtZkAia705sFF1-1" vertex="1">
          <mxGeometry x="1554.37" y="-510" width="73.5" height="84" as="geometry" />
        </mxCell>
        <mxCell id="wUNKqmBtZkAia705sFF1-54" value="" style="outlineConnect=0;dashed=0;verticalLabelPosition=bottom;verticalAlign=top;align=center;html=1;shape=mxgraph.aws3.android;fillColor=#8CC64F;gradientColor=none;" parent="wUNKqmBtZkAia705sFF1-1" vertex="1">
          <mxGeometry x="1554.37" y="-414" width="73.5" height="84" as="geometry" />
        </mxCell>
        <mxCell id="wUNKqmBtZkAia705sFF1-55" value="" style="outlineConnect=0;dashed=0;verticalLabelPosition=bottom;verticalAlign=top;align=center;html=1;shape=mxgraph.aws3.android;fillColor=#8CC64F;gradientColor=none;" parent="wUNKqmBtZkAia705sFF1-1" vertex="1">
          <mxGeometry x="1460.25" y="-135.5" width="73.5" height="84" as="geometry" />
        </mxCell>
        <mxCell id="wUNKqmBtZkAia705sFF1-56" value="" style="outlineConnect=0;dashed=0;verticalLabelPosition=bottom;verticalAlign=top;align=center;html=1;shape=mxgraph.aws3.android;fillColor=#8CC64F;gradientColor=#115193;" parent="wUNKqmBtZkAia705sFF1-1" vertex="1">
          <mxGeometry x="1210" y="-578" width="73.5" height="84" as="geometry" />
        </mxCell>
        <mxCell id="wUNKqmBtZkAia705sFF1-57" value="" style="outlineConnect=0;dashed=0;verticalLabelPosition=bottom;verticalAlign=top;align=center;html=1;shape=mxgraph.aws3.android;fillColor=#8CC64F;gradientColor=#115193;" parent="wUNKqmBtZkAia705sFF1-1" vertex="1">
          <mxGeometry x="1190" y="-502" width="73.5" height="84" as="geometry" />
        </mxCell>
        <mxCell id="wUNKqmBtZkAia705sFF1-58" value="" style="outlineConnect=0;dashed=0;verticalLabelPosition=bottom;verticalAlign=top;align=center;html=1;shape=mxgraph.aws3.android;fillColor=#115193;gradientColor=none;" parent="wUNKqmBtZkAia705sFF1-1" vertex="1">
          <mxGeometry x="793.25" y="-702" width="73.5" height="84" as="geometry" />
        </mxCell>
        <mxCell id="wUNKqmBtZkAia705sFF1-59" value="" style="outlineConnect=0;dashed=0;verticalLabelPosition=bottom;verticalAlign=top;align=center;html=1;shape=mxgraph.aws3.android;fillColor=#115193;gradientColor=none;" parent="wUNKqmBtZkAia705sFF1-1" vertex="1">
          <mxGeometry x="1094.5" y="-400" width="73.5" height="84" as="geometry" />
        </mxCell>
        <mxCell id="wUNKqmBtZkAia705sFF1-60" value="" style="outlineConnect=0;dashed=0;verticalLabelPosition=bottom;verticalAlign=top;align=center;html=1;shape=mxgraph.aws3.android;fillColor=#8CC64F;gradientColor=none;" parent="wUNKqmBtZkAia705sFF1-1" vertex="1">
          <mxGeometry x="611.62" y="-140" width="73.5" height="84" as="geometry" />
        </mxCell>
        <mxCell id="wUNKqmBtZkAia705sFF1-61" value="" style="outlineConnect=0;dashed=0;verticalLabelPosition=bottom;verticalAlign=top;align=center;html=1;shape=mxgraph.aws3.android;fillColor=#8CC64F;gradientColor=none;" parent="wUNKqmBtZkAia705sFF1-1" vertex="1">
          <mxGeometry x="701.62" y="-186" width="73.5" height="84" as="geometry" />
        </mxCell>
        <mxCell id="wUNKqmBtZkAia705sFF1-62" value="" style="outlineConnect=0;dashed=0;verticalLabelPosition=bottom;verticalAlign=top;align=center;html=1;shape=mxgraph.aws3.android;fillColor=#8CC64F;gradientColor=none;" parent="wUNKqmBtZkAia705sFF1-1" vertex="1">
          <mxGeometry x="701.62" y="-90" width="73.5" height="84" as="geometry" />
        </mxCell>
        <mxCell id="wUNKqmBtZkAia705sFF1-63" value="" style="outlineConnect=0;dashed=0;verticalLabelPosition=bottom;verticalAlign=top;align=center;html=1;shape=mxgraph.aws3.android;fillColor=#8CC64F;gradientColor=none;" parent="wUNKqmBtZkAia705sFF1-1" vertex="1">
          <mxGeometry x="793.12" y="-140" width="73.5" height="84" as="geometry" />
        </mxCell>
        <mxCell id="wUNKqmBtZkAia705sFF1-64" value="" style="outlineConnect=0;dashed=0;verticalLabelPosition=bottom;verticalAlign=top;align=center;html=1;shape=mxgraph.aws3.android;fillColor=#8CC64F;gradientColor=none;" parent="wUNKqmBtZkAia705sFF1-1" vertex="1">
          <mxGeometry x="611.62" y="-36" width="73.5" height="84" as="geometry" />
        </mxCell>
        <mxCell id="wUNKqmBtZkAia705sFF1-65" value="" style="outlineConnect=0;dashed=0;verticalLabelPosition=bottom;verticalAlign=top;align=center;html=1;shape=mxgraph.aws3.android;fillColor=#8CC64F;gradientColor=none;" parent="wUNKqmBtZkAia705sFF1-1" vertex="1">
          <mxGeometry x="772.87" y="-22" width="73.5" height="84" as="geometry" />
        </mxCell>
        <mxCell id="wUNKqmBtZkAia705sFF1-66" value="" style="outlineConnect=0;dashed=0;verticalLabelPosition=bottom;verticalAlign=top;align=center;html=1;shape=mxgraph.aws3.android;fillColor=#115193;gradientColor=none;" parent="wUNKqmBtZkAia705sFF1-1" vertex="1">
          <mxGeometry x="810" y="-392" width="73.5" height="84" as="geometry" />
        </mxCell>
        <mxCell id="wUNKqmBtZkAia705sFF1-67" value="" style="pointerEvents=1;shadow=0;dashed=0;html=1;strokeColor=none;fillColor=#8CC64F;labelPosition=center;verticalLabelPosition=bottom;verticalAlign=top;align=center;outlineConnect=0;shape=mxgraph.veeam.2d.proxy;" parent="wUNKqmBtZkAia705sFF1-1" vertex="1">
          <mxGeometry x="881.75" y="-298" width="30" height="30" as="geometry" />
        </mxCell>
        <mxCell id="wUNKqmBtZkAia705sFF1-68" value="" style="group" parent="wUNKqmBtZkAia705sFF1-1" vertex="1" connectable="0">
          <mxGeometry x="700" y="-501" width="137" height="84" as="geometry" />
        </mxCell>
        <mxCell id="wUNKqmBtZkAia705sFF1-69" value="" style="pointerEvents=1;shadow=0;dashed=0;html=1;strokeColor=none;fillColor=#115193;labelPosition=center;verticalLabelPosition=bottom;verticalAlign=top;align=center;outlineConnect=0;shape=mxgraph.veeam.2d.proxy;" parent="wUNKqmBtZkAia705sFF1-68" vertex="1">
          <mxGeometry x="90" y="16" width="30" height="30" as="geometry" />
        </mxCell>
        <mxCell id="wUNKqmBtZkAia705sFF1-70" value="" style="outlineConnect=0;dashed=0;verticalLabelPosition=bottom;verticalAlign=top;align=center;html=1;shape=mxgraph.aws3.android;fillColor=#8CC64F;gradientColor=#115193;" parent="wUNKqmBtZkAia705sFF1-68" vertex="1">
          <mxGeometry x="27" width="73.5" height="84" as="geometry" />
        </mxCell>
        <mxCell id="wUNKqmBtZkAia705sFF1-71" value="" style="pointerEvents=1;shadow=0;dashed=0;html=1;strokeColor=none;fillColor=#8CC64F;labelPosition=center;verticalLabelPosition=bottom;verticalAlign=top;align=center;outlineConnect=0;shape=mxgraph.veeam.2d.proxy;" parent="wUNKqmBtZkAia705sFF1-68" vertex="1">
          <mxGeometry x="5" y="41" width="30" height="30" as="geometry" />
        </mxCell>
        <mxCell id="wUNKqmBtZkAia705sFF1-73" value="" style="pointerEvents=1;shadow=0;dashed=0;html=1;strokeColor=none;fillColor=#115193;labelPosition=center;verticalLabelPosition=bottom;verticalAlign=top;align=center;outlineConnect=0;shape=mxgraph.veeam.2d.proxy;" parent="wUNKqmBtZkAia705sFF1-1" vertex="1">
          <mxGeometry x="840.75" y="-642" width="30" height="30" as="geometry" />
        </mxCell>
        <mxCell id="wUNKqmBtZkAia705sFF1-75" value="" style="pointerEvents=1;shadow=0;dashed=0;html=1;strokeColor=none;fillColor=#115193;labelPosition=center;verticalLabelPosition=bottom;verticalAlign=top;align=center;outlineConnect=0;shape=mxgraph.veeam.2d.proxy;" parent="wUNKqmBtZkAia705sFF1-1" vertex="1">
          <mxGeometry x="914.25" y="-675" width="30" height="30" as="geometry" />
        </mxCell>
        <mxCell id="wUNKqmBtZkAia705sFF1-77" value="" style="pointerEvents=1;shadow=0;dashed=0;html=1;strokeColor=none;fillColor=#115193;labelPosition=center;verticalLabelPosition=bottom;verticalAlign=top;align=center;outlineConnect=0;shape=mxgraph.veeam.2d.proxy;" parent="wUNKqmBtZkAia705sFF1-1" vertex="1">
          <mxGeometry x="971.75" y="-682" width="30" height="30" as="geometry" />
        </mxCell>
        <mxCell id="wUNKqmBtZkAia705sFF1-79" value="" style="pointerEvents=1;shadow=0;dashed=0;html=1;strokeColor=none;fillColor=#115193;labelPosition=center;verticalLabelPosition=bottom;verticalAlign=top;align=center;outlineConnect=0;shape=mxgraph.veeam.2d.proxy;" parent="wUNKqmBtZkAia705sFF1-1" vertex="1">
          <mxGeometry x="1033.9099999999999" y="-675" width="30" height="30" as="geometry" />
        </mxCell>
        <mxCell id="wUNKqmBtZkAia705sFF1-81" value="" style="pointerEvents=1;shadow=0;dashed=0;html=1;strokeColor=none;fillColor=#115193;labelPosition=center;verticalLabelPosition=bottom;verticalAlign=top;align=center;outlineConnect=0;shape=mxgraph.veeam.2d.proxy;" parent="wUNKqmBtZkAia705sFF1-1" vertex="1">
          <mxGeometry x="1102.25" y="-631" width="30" height="30" as="geometry" />
        </mxCell>
        <mxCell id="wUNKqmBtZkAia705sFF1-82" value="" style="outlineConnect=0;dashed=0;verticalLabelPosition=bottom;verticalAlign=top;align=center;html=1;shape=mxgraph.aws3.android;fillColor=#8CC64F;gradientColor=#115193;" parent="wUNKqmBtZkAia705sFF1-1" vertex="1">
          <mxGeometry x="701" y="-573" width="73.5" height="84" as="geometry" />
        </mxCell>
        <mxCell id="wUNKqmBtZkAia705sFF1-83" value="" style="pointerEvents=1;shadow=0;dashed=0;html=1;strokeColor=none;fillColor=#8CC64F;labelPosition=center;verticalLabelPosition=bottom;verticalAlign=top;align=center;outlineConnect=0;shape=mxgraph.veeam.2d.proxy;" parent="wUNKqmBtZkAia705sFF1-1" vertex="1">
          <mxGeometry x="678" y="-542" width="30" height="30" as="geometry" />
        </mxCell>
        <mxCell id="wUNKqmBtZkAia705sFF1-85" value="" style="pointerEvents=1;shadow=0;dashed=0;html=1;strokeColor=none;fillColor=#115193;labelPosition=center;verticalLabelPosition=bottom;verticalAlign=top;align=center;outlineConnect=0;shape=mxgraph.veeam.2d.proxy;" parent="wUNKqmBtZkAia705sFF1-1" vertex="1">
          <mxGeometry x="767" y="-544" width="30" height="30" as="geometry" />
        </mxCell>
        <mxCell id="wUNKqmBtZkAia705sFF1-86" value="" style="outlineConnect=0;dashed=0;verticalLabelPosition=bottom;verticalAlign=top;align=center;html=1;shape=mxgraph.aws3.android;fillColor=#8CC64F;gradientColor=#115193;" parent="wUNKqmBtZkAia705sFF1-1" vertex="1">
          <mxGeometry x="730.5" y="-645" width="73.5" height="84" as="geometry" />
        </mxCell>
        <mxCell id="wUNKqmBtZkAia705sFF1-87" value="" style="pointerEvents=1;shadow=0;dashed=0;html=1;strokeColor=none;fillColor=#8CC64F;labelPosition=center;verticalLabelPosition=bottom;verticalAlign=top;align=center;outlineConnect=0;shape=mxgraph.veeam.2d.proxy;" parent="wUNKqmBtZkAia705sFF1-1" vertex="1">
          <mxGeometry x="714.75" y="-615" width="30" height="30" as="geometry" />
        </mxCell>
        <mxCell id="wUNKqmBtZkAia705sFF1-89" value="" style="pointerEvents=1;shadow=0;dashed=0;html=1;strokeColor=none;fillColor=#115193;labelPosition=center;verticalLabelPosition=bottom;verticalAlign=top;align=center;outlineConnect=0;shape=mxgraph.veeam.2d.proxy;" parent="wUNKqmBtZkAia705sFF1-1" vertex="1">
          <mxGeometry x="792.25" y="-606" width="30" height="30" as="geometry" />
        </mxCell>
        <mxCell id="wUNKqmBtZkAia705sFF1-90" value="" style="outlineConnect=0;dashed=0;verticalLabelPosition=bottom;verticalAlign=top;align=center;html=1;shape=mxgraph.aws3.android;fillColor=#8CC64F;gradientColor=#115193;" parent="wUNKqmBtZkAia705sFF1-1" vertex="1">
          <mxGeometry x="960.75" y="-332" width="73.5" height="84" as="geometry" />
        </mxCell>
        <mxCell id="wUNKqmBtZkAia705sFF1-92" value="" style="pointerEvents=1;shadow=0;dashed=0;html=1;strokeColor=none;fillColor=#115193;labelPosition=center;verticalLabelPosition=bottom;verticalAlign=top;align=center;outlineConnect=0;shape=mxgraph.veeam.2d.proxy;" parent="wUNKqmBtZkAia705sFF1-1" vertex="1">
          <mxGeometry x="1160" y="-589" width="30" height="30" as="geometry" />
        </mxCell>
        <mxCell id="wUNKqmBtZkAia705sFF1-94" style="edgeStyle=orthogonalEdgeStyle;orthogonalLoop=1;jettySize=auto;html=1;strokeColor=#115193;curved=1;" parent="wUNKqmBtZkAia705sFF1-1" source="wUNKqmBtZkAia705sFF1-95" target="wUNKqmBtZkAia705sFF1-101" edge="1">
          <mxGeometry relative="1" as="geometry">
            <Array as="points">
              <mxPoint x="1118" y="-532" />
              <mxPoint x="1118" y="-530" />
            </Array>
          </mxGeometry>
        </mxCell>
        <mxCell id="wUNKqmBtZkAia705sFF1-95" value="" style="pointerEvents=1;shadow=0;dashed=0;html=1;strokeColor=none;fillColor=#115193;labelPosition=center;verticalLabelPosition=bottom;verticalAlign=top;align=center;outlineConnect=0;shape=mxgraph.veeam.2d.proxy;" parent="wUNKqmBtZkAia705sFF1-1" vertex="1">
          <mxGeometry x="1193.5" y="-547" width="30" height="30" as="geometry" />
        </mxCell>
        <mxCell id="wUNKqmBtZkAia705sFF1-96" value="" style="pointerEvents=1;shadow=0;dashed=0;html=1;strokeColor=none;fillColor=#8CC64F;labelPosition=center;verticalLabelPosition=bottom;verticalAlign=top;align=center;outlineConnect=0;shape=mxgraph.veeam.2d.proxy;" parent="wUNKqmBtZkAia705sFF1-1" vertex="1">
          <mxGeometry x="960.75" y="-278" width="30" height="30" as="geometry" />
        </mxCell>
        <mxCell id="wUNKqmBtZkAia705sFF1-97" value="" style="pointerEvents=1;shadow=0;dashed=0;html=1;strokeColor=none;fillColor=#8CC64F;labelPosition=center;verticalLabelPosition=bottom;verticalAlign=top;align=center;outlineConnect=0;shape=mxgraph.veeam.2d.proxy;" parent="wUNKqmBtZkAia705sFF1-1" vertex="1">
          <mxGeometry x="1063.25" y="-292" width="30" height="30" as="geometry" />
        </mxCell>
        <mxCell id="wUNKqmBtZkAia705sFF1-98" value="" style="pointerEvents=1;shadow=0;dashed=0;html=1;strokeColor=none;fillColor=#8CC64F;labelPosition=center;verticalLabelPosition=bottom;verticalAlign=top;align=center;outlineConnect=0;shape=mxgraph.veeam.2d.proxy;" parent="wUNKqmBtZkAia705sFF1-1" vertex="1">
          <mxGeometry x="1253.5" y="-475" width="30" height="30" as="geometry" />
        </mxCell>
        <mxCell id="wUNKqmBtZkAia705sFF1-99" value="" style="pointerEvents=1;shadow=0;dashed=0;html=1;strokeColor=none;fillColor=#8CC64F;labelPosition=center;verticalLabelPosition=bottom;verticalAlign=top;align=center;outlineConnect=0;shape=mxgraph.veeam.2d.proxy;" parent="wUNKqmBtZkAia705sFF1-1" vertex="1">
          <mxGeometry x="1270" y="-554" width="30" height="30" as="geometry" />
        </mxCell>
        <mxCell id="wUNKqmBtZkAia705sFF1-100" value="" style="pointerEvents=1;shadow=0;dashed=0;html=1;strokeColor=none;fillColor=#8CC64F;labelPosition=center;verticalLabelPosition=bottom;verticalAlign=top;align=center;outlineConnect=0;shape=mxgraph.veeam.2d.proxy;" parent="wUNKqmBtZkAia705sFF1-1" vertex="1">
          <mxGeometry x="1231.75" y="-626" width="30" height="30" as="geometry" />
        </mxCell>
        <mxCell id="wUNKqmBtZkAia705sFF1-101" value="&lt;font style=&quot;font-size: 15px;&quot;&gt;Global L0 State&lt;/font&gt;" style="image;aspect=fixed;perimeter=ellipsePerimeter;html=1;align=center;shadow=0;dashed=0;spacingTop=3;image=img/lib/active_directory/databases.svg;" parent="wUNKqmBtZkAia705sFF1-1" vertex="1">
          <mxGeometry x="935" y="-589" width="108.16" height="106" as="geometry" />
        </mxCell>
        <mxCell id="wUNKqmBtZkAia705sFF1-102" style="edgeStyle=orthogonalEdgeStyle;orthogonalLoop=1;jettySize=auto;html=1;curved=1;strokeColor=#115193;entryX=0;entryY=0.75;entryDx=0;entryDy=0;" parent="wUNKqmBtZkAia705sFF1-1" source="wUNKqmBtZkAia705sFF1-85" target="wUNKqmBtZkAia705sFF1-101" edge="1">
          <mxGeometry relative="1" as="geometry" />
        </mxCell>
        <mxCell id="wUNKqmBtZkAia705sFF1-103" value="Metagraph A" style="text;html=1;align=center;verticalAlign=middle;resizable=0;points=[];autosize=1;strokeColor=none;fillColor=none;fontSize=15;" parent="wUNKqmBtZkAia705sFF1-1" vertex="1">
          <mxGeometry x="289.12" y="-633" width="110" height="30" as="geometry" />
        </mxCell>
        <mxCell id="wUNKqmBtZkAia705sFF1-104" value="Metagraph B" style="text;html=1;align=center;verticalAlign=middle;resizable=0;points=[];autosize=1;strokeColor=none;fillColor=none;fontSize=15;" parent="wUNKqmBtZkAia705sFF1-1" vertex="1">
          <mxGeometry x="601.62" y="97" width="110" height="30" as="geometry" />
        </mxCell>
        <mxCell id="wUNKqmBtZkAia705sFF1-105" value="" style="group" parent="wUNKqmBtZkAia705sFF1-1" vertex="1" connectable="0">
          <mxGeometry x="20" y="-810" width="220" height="281" as="geometry" />
        </mxCell>
        <mxCell id="wUNKqmBtZkAia705sFF1-106" value="" style="whiteSpace=wrap;html=1;dashed=1;" parent="wUNKqmBtZkAia705sFF1-105" vertex="1">
          <mxGeometry width="220" height="281" as="geometry" />
        </mxCell>
        <mxCell id="wUNKqmBtZkAia705sFF1-107" value="" style="outlineConnect=0;dashed=0;verticalLabelPosition=bottom;verticalAlign=top;align=center;html=1;shape=mxgraph.aws3.android;fillColor=#115193;gradientColor=none;" parent="wUNKqmBtZkAia705sFF1-105" vertex="1">
          <mxGeometry x="20" y="41" width="35" height="40" as="geometry" />
        </mxCell>
        <mxCell id="wUNKqmBtZkAia705sFF1-108" value="" style="outlineConnect=0;dashed=0;verticalLabelPosition=bottom;verticalAlign=top;align=center;html=1;shape=mxgraph.aws3.android;fillColor=#8CC64F;gradientColor=none;" parent="wUNKqmBtZkAia705sFF1-105" vertex="1">
          <mxGeometry x="20" y="145.5" width="35.88" height="41" as="geometry" />
        </mxCell>
        <mxCell id="wUNKqmBtZkAia705sFF1-109" value="" style="outlineConnect=0;dashed=0;verticalLabelPosition=bottom;verticalAlign=top;align=center;html=1;shape=mxgraph.aws3.android;fillColor=#8CC64F;gradientColor=#115193;" parent="wUNKqmBtZkAia705sFF1-105" vertex="1">
          <mxGeometry x="20" y="89.5" width="37.63" height="43" as="geometry" />
        </mxCell>
        <mxCell id="wUNKqmBtZkAia705sFF1-110" value="Metagraph L1 Node" style="text;html=1;align=left;verticalAlign=middle;resizable=0;points=[];autosize=1;strokeColor=none;fillColor=none;fontSize=12;" parent="wUNKqmBtZkAia705sFF1-105" vertex="1">
          <mxGeometry x="70.88" y="151" width="130" height="30" as="geometry" />
        </mxCell>
        <mxCell id="wUNKqmBtZkAia705sFF1-111" value="Hybrid Node" style="text;html=1;align=left;verticalAlign=middle;resizable=0;points=[];autosize=1;strokeColor=none;fillColor=none;fontSize=12;" parent="wUNKqmBtZkAia705sFF1-105" vertex="1">
          <mxGeometry x="70" y="96" width="90" height="30" as="geometry" />
        </mxCell>
        <mxCell id="wUNKqmBtZkAia705sFF1-112" value="Global L0 Node" style="text;html=1;align=left;verticalAlign=middle;resizable=0;points=[];autosize=1;strokeColor=none;fillColor=none;fontSize=12;" parent="wUNKqmBtZkAia705sFF1-105" vertex="1">
          <mxGeometry x="70" y="46" width="110" height="30" as="geometry" />
        </mxCell>
        <mxCell id="wUNKqmBtZkAia705sFF1-113" value="" style="pointerEvents=1;shadow=0;dashed=0;html=1;strokeColor=none;fillColor=#8CC64F;labelPosition=center;verticalLabelPosition=bottom;verticalAlign=top;align=center;outlineConnect=0;shape=mxgraph.veeam.2d.proxy;" parent="wUNKqmBtZkAia705sFF1-105" vertex="1">
          <mxGeometry x="22.939999999999998" y="201" width="30" height="30" as="geometry" />
        </mxCell>
        <mxCell id="wUNKqmBtZkAia705sFF1-114" value="" style="pointerEvents=1;shadow=0;dashed=0;html=1;strokeColor=none;fillColor=#115193;labelPosition=center;verticalLabelPosition=bottom;verticalAlign=top;align=center;outlineConnect=0;shape=mxgraph.veeam.2d.proxy;" parent="wUNKqmBtZkAia705sFF1-105" vertex="1">
          <mxGeometry x="22.5" y="241" width="30" height="30" as="geometry" />
        </mxCell>
        <mxCell id="wUNKqmBtZkAia705sFF1-115" value="Metagraph L0 Process" style="text;html=1;align=left;verticalAlign=middle;resizable=0;points=[];autosize=1;strokeColor=none;fillColor=none;" parent="wUNKqmBtZkAia705sFF1-105" vertex="1">
          <mxGeometry x="70.88" y="201" width="140" height="30" as="geometry" />
        </mxCell>
        <mxCell id="wUNKqmBtZkAia705sFF1-116" value="Global L0 Process" style="text;html=1;align=left;verticalAlign=middle;resizable=0;points=[];autosize=1;strokeColor=none;fillColor=none;" parent="wUNKqmBtZkAia705sFF1-105" vertex="1">
          <mxGeometry x="70.88" y="241" width="120" height="30" as="geometry" />
        </mxCell>
        <mxCell id="wUNKqmBtZkAia705sFF1-117" value="&lt;i&gt;&lt;u&gt;Legend&lt;/u&gt;&lt;/i&gt;" style="text;html=1;align=center;verticalAlign=middle;resizable=0;points=[];autosize=1;strokeColor=none;fillColor=none;" parent="wUNKqmBtZkAia705sFF1-105" vertex="1">
          <mxGeometry width="60" height="30" as="geometry" />
        </mxCell>
        <mxCell id="wUNKqmBtZkAia705sFF1-118" value="" style="pointerEvents=1;shadow=0;dashed=0;html=1;strokeColor=none;fillColor=#8CC64F;labelPosition=center;verticalLabelPosition=bottom;verticalAlign=top;align=center;outlineConnect=0;shape=mxgraph.veeam.2d.proxy;" parent="wUNKqmBtZkAia705sFF1-1" vertex="1">
          <mxGeometry x="1003.91" y="-278" width="30" height="30" as="geometry" />
        </mxCell>
        <mxCell id="wUNKqmBtZkAia705sFF1-120" value="BLOCK" style="text;html=1;align=center;verticalAlign=middle;resizable=0;points=[];autosize=1;strokeColor=none;fillColor=none;fontColor=#8CC64F;" parent="wUNKqmBtZkAia705sFF1-1" vertex="1">
          <mxGeometry x="605" y="-550" width="60" height="30" as="geometry" />
        </mxCell>
        <mxCell id="wUNKqmBtZkAia705sFF1-121" value="SNAPSHOT" style="text;html=1;align=center;verticalAlign=middle;resizable=0;points=[];autosize=1;strokeColor=none;fillColor=none;fontColor=#115193;" parent="wUNKqmBtZkAia705sFF1-1" vertex="1">
          <mxGeometry x="840.75" y="-516" width="90" height="30" as="geometry" />
        </mxCell>
        <mxCell id="wUNKqmBtZkAia705sFF1-122" value="Directed Acyclic Graph" style="text;html=1;align=center;verticalAlign=middle;resizable=0;points=[];autosize=1;strokeColor=none;fillColor=none;fontStyle=2" parent="wUNKqmBtZkAia705sFF1-1" vertex="1">
          <mxGeometry x="435" y="-640" width="150" height="30" as="geometry" />
        </mxCell>
        <mxCell id="wUNKqmBtZkAia705sFF1-123" value="Directed Acyclic Graph" style="text;html=1;align=center;verticalAlign=middle;resizable=0;points=[];autosize=1;strokeColor=none;fillColor=none;fontStyle=2" parent="wUNKqmBtZkAia705sFF1-1" vertex="1">
          <mxGeometry x="736.62" y="-212" width="150" height="30" as="geometry" />
        </mxCell>
        <mxCell id="wUNKqmBtZkAia705sFF1-124" value="Directed Acyclic Graph" style="text;html=1;align=center;verticalAlign=middle;resizable=0;points=[];autosize=1;strokeColor=none;fillColor=none;fontStyle=2" parent="wUNKqmBtZkAia705sFF1-1" vertex="1">
          <mxGeometry x="1407.75" y="-203.5" width="150" height="30" as="geometry" />
        </mxCell>
        <mxCell id="wUNKqmBtZkAia705sFF1-125" value="Directed Acyclic Graph" style="text;html=1;align=center;verticalAlign=middle;resizable=0;points=[];autosize=1;strokeColor=none;fillColor=none;fontStyle=2" parent="wUNKqmBtZkAia705sFF1-1" vertex="1">
          <mxGeometry x="1570" y="-554" width="150" height="30" as="geometry" />
        </mxCell>
        <mxCell id="mhLgrYeDazOigMpENPwk-2" value="L0 &lt;br&gt;Consensus and &lt;br&gt;Validation" style="text;html=1;align=center;verticalAlign=middle;resizable=0;points=[];autosize=1;strokeColor=none;fillColor=none;fontColor=#115193;" parent="wUNKqmBtZkAia705sFF1-1" vertex="1">
          <mxGeometry x="928" y="-644" width="110" height="60" as="geometry" />
        </mxCell>
      </root>
    </mxGraphModel>
  </diagram>
</mxfile>
